# Wavefront OBJ file automatically generated by Tiled2Unity

# Vertices (Count = 56)
v 0 -70 0
v -70 -70 0
v -70 0 0
v 0 0 0
v -140 -70 0
v -140 0 0
v -210 -70 0
v -210 0 0
v -280 -70 0
v -280 0 0
v -350 -70 0
v -350 0 0
v -420 -70 0
v -420 0 0
v -490 -70 0
v -490 0 0
v -560 -70 0
v -560 0 0
v -630 -70 0
v -630 0 0
v 0 -490 0
v -70 -490 0
v -70 -420 0
v 0 -420 0
v -350 -490 0
v -420 -490 0
v -420 -420 0
v -350 -420 0
v -490 -490 0
v -490 -420 0
v -560 -490 0
v -560 -420 0
v -630 -490 0
v -630 -420 0
v -700 -490 0
v -700 -420 0
v -140 -490 0
v -140 -420 0
v -210 -490 0
v -210 -420 0
v -280 -490 0
v -280 -420 0
v 0 -560 0
v -70 -560 0
v -140 -560 0
v -210 -560 0
v -280 -560 0
v -350 -560 0
v -420 -560 0
v -490 -560 0
v -560 -560 0
v -630 -560 0
v -700 -560 0
v 0 -146 0
v -48 -146 0
v -48 0 0

# Texture cooridinates (Count = 4)
vt 0.0001220703 0.0001220703
vt 0.9998779 0.0001220703
vt 0.9998779 0.9998779
vt 0.0001220703 0.9998779

# Normal
vn 0 0 -1

# Groups (Count = 2)

g mesh_0001
f 1/1/1 2/2/1 3/3/1 4/4/1

g mesh_0002
f 2/1/1 5/2/1 6/3/1 3/4/1
f 5/1/1 7/2/1 8/3/1 6/4/1
f 7/1/1 9/2/1 10/3/1 8/4/1
f 9/1/1 11/2/1 12/3/1 10/4/1
f 11/1/1 13/2/1 14/3/1 12/4/1
f 13/1/1 15/2/1 16/3/1 14/4/1
f 15/1/1 17/2/1 18/3/1 16/4/1

g mesh_0003
f 17/1/1 19/2/1 20/3/1 18/4/1

g mesh_0004
f 21/1/1 22/2/1 23/3/1 24/4/1
f 25/1/1 26/2/1 27/3/1 28/4/1
f 26/1/1 29/2/1 30/3/1 27/4/1
f 29/1/1 31/2/1 32/3/1 30/4/1
f 31/1/1 33/2/1 34/3/1 32/4/1
f 33/1/1 35/2/1 36/3/1 34/4/1

g mesh_0005
f 22/1/1 37/2/1 38/3/1 23/4/1
f 37/1/1 39/2/1 40/3/1 38/4/1
f 39/1/1 41/2/1 42/3/1 40/4/1
f 41/1/1 25/2/1 28/3/1 42/4/1

g mesh_0006
f 43/1/1 44/2/1 22/3/1 21/4/1
f 44/1/1 45/2/1 37/3/1 22/4/1
f 45/1/1 46/2/1 39/3/1 37/4/1
f 46/1/1 47/2/1 41/3/1 39/4/1
f 47/1/1 48/2/1 25/3/1 41/4/1
f 48/1/1 49/2/1 26/3/1 25/4/1
f 49/1/1 50/2/1 29/3/1 26/4/1
f 50/1/1 51/2/1 31/3/1 29/4/1
f 51/1/1 52/2/1 33/3/1 31/4/1
f 52/1/1 53/2/1 35/3/1 33/4/1

g mesh_tile_0085
f 54/1/1 55/2/1 56/3/1 4/4/1

